<svg width="1117" height="200" viewBox="0 0 1117 200" xmlns="http://www.w3.org/2000/svg"><title>Ancestry Black</title><path d="M319.8 85.246c-12.107 1.513-19.673 5.044-24.717 10.09-4.037 4.034-6.053 9.078-6.053 14.122 0 9.08 6.557 15.638 14.628 15.638 5.043 0 10.087-2.02 12.61-5.044 1.008-1.01 2.018-3.027 2.018-5.044l1.513-29.762zm20.68 53.972c-10.088 0-19.17-6.557-21.69-16.643-5.045 9.077-14.628 16.643-27.238 16.643-14.124 0-26.23-11.097-26.23-25.22 0-19.673 18.664-33.795 53.972-34.3v-5.044c.505-14.123-7.566-22.7-21.69-22.7-10.09 0-20.68 6.56-27.742 15.133-.504.505-3.53-2.52-3.53-3.026 9.078-18.156 25.724-28.245 42.874-28.245 19.67 0 33.795 14.124 33.29 37.83l-1.51 39.345c0 9.08 4.034 13.114 8.573 13.114 5.042 0 8.573-4.035 10.59-9.586 0-.503 3.026 1.01 3.026 1.514 0 13.62-10.087 21.186-22.698 21.186zm125.597-3.53h-26.733c-.505 0-.505-5.044 0-5.044 11.097-1.514 12.61-2.523 12.61-24.212V76.168c0-13.62-8.07-23.203-19.672-23.203-8.07 0-15.637 4.035-19.168 9.08-2.522 3.027-4.035 8.575-4.035 15.637v28.75c0 21.69 2.52 22.698 13.62 24.212 0 0 .502 5.043 0 5.043h-51.454c-.503 0-.503-5.043-.503-5.043 12.105-2.02 13.62-2.523 13.62-24.212V69.61c0-22.195-2.523-23.203-15.64-25.22-1.007 0-.503-5.045 0-5.045h38.337V61.54h.506c8.575-16.143 21.69-25.726 37.83-25.726 18.16 0 32.283 14.124 32.283 37.327v32.788c0 21.69 2.015 22.698 14.122 24.212 1.008 0 .504 5.043 0 5.043-7.566.504-18.664.504-25.726.504m81.21 3.53c-30.263 0-49.935-23.706-49.935-50.944 0-29.256 19.674-52.46 51.957-52.46 15.132 0 22.697 5.045 27.238 5.045 2.017 0 4.035-1.513 5.043-4.035 0-.505 6.054-.505 6.054 0V73.14c0 .505-6.053.505-6.053 0-8.07-16.646-19.168-30.768-32.28-30.768-16.145 0-25.728 17.15-25.728 40.856 0 25.22 13.114 41.868 31.274 41.868 12.105 0 25.726-8.576 31.273-18.16.503-1.01 4.54 1.01 4.54 2.02-6.557 17.148-23.71 30.262-43.38 30.262m122.57-64.06v-7.062c0-15.637-7.566-24.716-17.15-24.716-12.107 0-21.185 13.114-23.204 31.778h40.355zm-40.354 11.6c0 21.69 12.108 38.336 32.787 38.336 12.106 0 24.21-8.07 30.77-18.16 0-.503 4.034 1.01 4.034 2.02-5.546 17.15-23.707 30.263-43.883 30.263-31.777 0-50.44-23.203-50.44-50.945s19.672-52.458 52.963-52.458c25.22 0 41.867 16.645 43.38 39.344v7.062h-68.6c-1.01 1.008-1.01 3.53-1.01 4.54zm120.052 52.46c-15.638 0-29.257-4.033-33.796-7.062-.504-.504-2.017-13.618-2.017-26.733 0-.503 6.052-1.01 6.052 0 8.07 17.654 19.672 27.742 32.283 27.742 10.592 0 18.158-5.547 18.158-14.123 0-10.087-12.106-14.628-24.21-20.176-14.63-5.548-31.273-13.115-31.273-31.777 0-14.63 12.61-29.763 36.317-29.763 10.09 0 16.645 4.035 21.186 4.035 2.017 0 4.034-1.512 5.546-4.035 0-.504 6.054-.504 6.054 0V70.62c0 .504-6.054.504-6.054 0-8.07-15.133-17.653-25.726-29.255-25.726-10.595 0-15.64 7.062-15.64 12.612 0 10.087 11.602 14.122 23.707 19.167 14.628 6.052 31.778 13.62 31.778 32.786 0 16.14-15.13 29.757-38.838 29.757m49.937-89.28c-1.512 0-2.017-4.036-.504-5.044 10.593-9.585 28.248-25.725 37.83-35.814.505-.506 4.036 0 4.036 1.01v29.757h34.3c1.01 0 1.01 9.584 0 9.584h-34.3v55.99c0 12.61 7.567 18.16 15.637 18.16 6.053 0 12.61-5.043 15.638-11.098 0-.503 4.036 1.514 4.036 2.02-4.034 13.62-17.15 24.21-31.778 24.21-15.638 0-28.248-10.088-28.248-29.76V49.936h-16.646zM958.89 66.08c-3.028 0-10.594-9.08-16.142-9.08-2.523 0-5.55 1.513-8.07 4.035-4.036 4.035-7.567 13.62-7.567 21.69v24.212c0 22.194 3.533 22.698 15.135 24.21 0 0 .504 5.043 0 5.043H888.78c-.506 0-.506-5.042 0-5.042 12.105-2.018 13.62-2.523 13.62-24.21V70.113c0-21.69-2.523-23.203-15.64-25.22-1.01 0-.504-5.045 0-5.045H925.6v25.22h1.01c1.01-3.026 3.025-6.557 4.54-10.088 7.06-11.602 15.64-18.664 24.716-18.664 8.575 0 15.638 6.558 15.638 13.62.5 8.07-10.09 16.14-12.61 16.14M1063.3 79.193l-32.786 84.237c-11.6 29.76-22.194 35.814-36.318 35.814-8.07 0-17.15-4.036-17.15-6.557-.504-4.036 5.044-18.663 8.07-18.663 1.01 0 13.115 5.546 19.167 5.546 8.575 0 14.124-5.546 18.663-17.653l6.054-16.142c-2.018-8.07-26.23-61.033-29.255-68.096-6.053-14.125-10.09-25.22-14.124-29.257-2.52-2.523-5.042-3.53-12.104-4.54-.504 0-.504-5.045 0-5.045 6.558 0 20.177.504 27.743.504 7.565 0 20.68-.505 27.237-.505.504 0 .504 5.045 0 5.045-15.133 2.016-13.62 7.06-5.548 27.238l17.654 42.874 14.122-36.822c5.045-12.61 7.567-20.176 7.567-24.716 0-5.55-3.533-7.567-14.124-8.07-.506 0-.506-5.55 0-5.55 7.06 0 16.14.504 22.193.504 4.54 0 9.08-.505 17.655-.505.504 0 1.008 5.55 0 5.55-5.548.503-8.07 2.016-11.097 5.042-4.034 4.036-7.06 12.106-13.62 29.76zm-912.48-45.9c-17.654-19.17-35.307-16.14-38.334-15.638 1.513.504 3.027 33.796 21.69 51.45 12.61 11.6 38.335 7.565 38.335 7.565s-4.54-24.715-21.69-43.378m21.188 65.07c-5.55 0-28.248 2.018-43.38 20.68-15.637 19.673-15.133 35.31-18.664 38.84 3.027 1.01 34.805 4.035 48.424-16.645 13.114-19.17 13.62-39.85 13.62-42.876M33.798 84.74c3.53.506 15.636 16.143 37.326 18.16 23.707 2.524 31.777-9.582 32.283-9.582 0-1.514-19.168-22.194-40.353-22.194-14.63.503-29.257 13.617-29.257 13.617m86.254 10.595c-.503.504-20.174 26.734-66.58 19.672C16.14 108.954 2.522 88.272 0 87.767c3.027-4.035 31.275-26.733 64.06-26.23 32.284 1.01 55.99 19.17 55.99 19.17h20.68c-16.644-5.045-36.82-14.124-45.9-34.3-8.07-18.663-6.557-29.76-10.088-45.397 0 0 37.326-3.027 66.078 15.636 26.23 17.15 40.857 62.547 41.362 64.06h16.14L204.792 0l20.177.504c-3.53 21.186 1.01 172.51 0 172.51-2.018.503-19.17 1.51-20.68-2.524 0 0 4.034-74.148 4.54-75.662h-15.64c0 1.01-1.513 42.875-33.29 65.07-31.78 22.194-77.68 15.636-77.68 15.636 5.55-8.575 0-17.654 16.14-42.37 18.664-28.247 43.38-38.336 42.877-38.336-1.513.506-20.68.506-21.186.506m987.56-47.184c1.465 0 2.49-.535 2.49-1.804 0-1.12-.59-1.85-2.344-1.85h-1.56v3.655h1.414zm-2.973-5.02H1108c1.9 0 3.752.683 3.752 3.12 0 1.218-.83 2.39-1.95 2.73l2.39 4.19h-1.806l-1.9-3.704h-2.292v3.704h-1.557V43.13zm10.674 5.215c0-4.68-3.264-8.14-7.36-8.14-4.09 0-7.36 3.46-7.36 8.14 0 4.63 3.267 7.993 7.36 7.993 4.096 0 7.362-3.362 7.362-7.993zm-16.23 0c0-5.703 4.045-9.504 8.87-9.504 4.874 0 8.87 3.803 8.87 9.506 0 5.654-3.996 9.407-8.87 9.407-4.825 0-8.87-3.753-8.87-9.407z" fill="#231F20" fill-rule="evenodd"/></svg>